<svg width="39" height="39" viewBox="0 0 39 39" fill="none" xmlns="http://www.w3.org/2000/svg">
<rect width="39" height="39" rx="6" fill="black"/>
<path d="M14.3046 25.82C13.8113 25.82 13.3913 25.6733 13.0446 25.38C12.7246 25.1267 12.5046 24.8067 12.3846 24.42C12.2646 24.02 12.2579 23.6333 12.3646 23.26C12.3646 23.26 12.3713 23.2467 12.3846 23.22C12.3979 23.18 12.4113 23.1333 12.4246 23.08C11.6913 23.52 11.0246 23.8533 10.4246 24.08C9.91794 24.2667 9.41128 24.2467 8.90461 24.02C8.39794 23.78 8.05128 23.4067 7.86461 22.9C7.66461 22.38 7.68461 21.8667 7.92461 21.36C8.16461 20.8533 8.53794 20.5067 9.04461 20.32C9.27128 20.24 9.65128 20.0467 10.1846 19.74C10.7313 19.4333 11.4713 18.9067 12.4046 18.16C12.9646 17.7067 13.4246 17.3133 13.7846 16.98C14.1579 16.6333 14.3446 16.46 14.3446 16.46C14.8913 15.94 15.5313 15.7733 16.2646 15.96C16.8113 16.1067 17.2246 16.4267 17.5046 16.92C17.7179 17.2933 17.8113 17.6733 17.7846 18.06C17.7579 18.4467 17.6846 18.8933 17.5646 19.4C17.5513 19.5333 17.5246 19.6667 17.4846 19.8C17.4446 19.92 17.4046 20.0533 17.3646 20.2C17.7913 20.1733 18.1846 20.2667 18.5446 20.48C18.9179 20.6933 19.1913 21 19.3646 21.4C19.5913 21.8933 19.6046 22.4 19.4046 22.92C19.2046 23.4267 18.8513 23.7933 18.3446 24.02C17.7713 24.2733 17.2513 24.52 16.7846 24.76C16.3313 25 15.9646 25.1933 15.6846 25.34C15.4179 25.4867 15.2779 25.56 15.2646 25.56C14.9446 25.7333 14.6246 25.82 14.3046 25.82ZM24.498 25.62C24.3114 25.62 24.1047 25.5867 23.878 25.52C23.198 25.36 22.7314 24.9467 22.478 24.28C22.2647 23.7733 22.2714 23.2 22.498 22.56C22.578 22.3333 22.698 22.0667 22.858 21.76C22.8847 21.7067 22.9114 21.6467 22.938 21.58C22.978 21.5133 23.018 21.4533 23.058 21.4C22.7647 21.56 22.4647 21.7333 22.158 21.92C21.8647 22.0933 21.5647 22.26 21.258 22.42C20.7247 22.7533 20.2047 23.06 19.698 23.34C19.1914 23.6067 18.7247 23.8333 18.298 24.02C17.8047 24.2467 17.298 24.26 16.778 24.06C16.258 23.86 15.8914 23.5067 15.678 23C15.4514 22.4933 15.438 21.9867 15.638 21.48C15.838 20.96 16.1914 20.5933 16.698 20.38C17.0047 20.2333 17.3847 20.04 17.838 19.8C18.2914 19.5467 18.7647 19.2733 19.258 18.98C19.8447 18.6333 20.4647 18.28 21.118 17.92C21.7714 17.5467 22.4047 17.2267 23.018 16.96C23.7247 16.6133 24.3847 16.38 24.998 16.26C25.4247 16.1533 25.8247 16.0933 26.198 16.08C26.5714 16.0667 26.9247 16.1067 27.258 16.2C27.9914 16.4133 28.4914 16.8667 28.758 17.56C28.958 18.0533 28.9847 18.5467 28.838 19.04C28.7047 19.52 28.5247 19.9733 28.298 20.4C28.338 20.3867 28.378 20.3733 28.418 20.36C28.4714 20.3467 28.518 20.3333 28.558 20.32C29.0647 20.1333 29.5647 20.16 30.058 20.4C30.5647 20.6267 30.9114 21 31.098 21.52C31.2847 22.04 31.2647 22.5533 31.038 23.06C30.8114 23.5533 30.4314 23.8933 29.898 24.08C29.2847 24.2933 28.7114 24.4933 28.178 24.68C27.658 24.8667 27.198 25.0267 26.798 25.16C26.2514 25.32 25.798 25.44 25.438 25.52C25.0914 25.5867 24.778 25.62 24.498 25.62Z" fill="white"/>
</svg>
