<svg width="25" height="21" viewBox="0 0 25 21" fill="none" xmlns="http://www.w3.org/2000/svg">
<path d="M7.30461 16.82C6.81128 16.82 6.39128 16.6733 6.04461 16.38C5.72461 16.1267 5.50461 15.8067 5.38461 15.42C5.26461 15.02 5.25794 14.6333 5.36461 14.26C5.36461 14.26 5.37128 14.2467 5.38461 14.22C5.39794 14.18 5.41128 14.1333 5.42461 14.08C4.69128 14.52 4.02461 14.8533 3.42461 15.08C2.91794 15.2667 2.41128 15.2467 1.90461 15.02C1.39794 14.78 1.05128 14.4067 0.864609 13.9C0.664609 13.38 0.684609 12.8667 0.924609 12.36C1.16461 11.8533 1.53794 11.5067 2.04461 11.32C2.27128 11.24 2.65128 11.0467 3.18461 10.74C3.73128 10.4333 4.47128 9.90667 5.40461 9.16C5.96461 8.70667 6.42461 8.31333 6.78461 7.98C7.15794 7.63333 7.34461 7.46 7.34461 7.46C7.89128 6.94 8.53128 6.77333 9.26461 6.96C9.81128 7.10667 10.2246 7.42667 10.5046 7.92C10.7179 8.29333 10.8113 8.67333 10.7846 9.06C10.7579 9.44667 10.6846 9.89333 10.5646 10.4C10.5513 10.5333 10.5246 10.6667 10.4846 10.8C10.4446 10.92 10.4046 11.0533 10.3646 11.2C10.7913 11.1733 11.1846 11.2667 11.5446 11.48C11.9179 11.6933 12.1913 12 12.3646 12.4C12.5913 12.8933 12.6046 13.4 12.4046 13.92C12.2046 14.4267 11.8513 14.7933 11.3446 15.02C10.7713 15.2733 10.2513 15.52 9.78461 15.76C9.33128 16 8.96461 16.1933 8.68461 16.34C8.41794 16.4867 8.27794 16.56 8.26461 16.56C7.94461 16.7333 7.62461 16.82 7.30461 16.82ZM17.498 16.62C17.3114 16.62 17.1047 16.5867 16.878 16.52C16.198 16.36 15.7314 15.9467 15.478 15.28C15.2647 14.7733 15.2714 14.2 15.498 13.56C15.578 13.3333 15.698 13.0667 15.858 12.76C15.8847 12.7067 15.9114 12.6467 15.938 12.58C15.978 12.5133 16.018 12.4533 16.058 12.4C15.7647 12.56 15.4647 12.7333 15.158 12.92C14.8647 13.0933 14.5647 13.26 14.258 13.42C13.7247 13.7533 13.2047 14.06 12.698 14.34C12.1914 14.6067 11.7247 14.8333 11.298 15.02C10.8047 15.2467 10.298 15.26 9.77805 15.06C9.25805 14.86 8.89138 14.5067 8.67805 14C8.45138 13.4933 8.43805 12.9867 8.63805 12.48C8.83805 11.96 9.19138 11.5933 9.69805 11.38C10.0047 11.2333 10.3847 11.04 10.838 10.8C11.2914 10.5467 11.7647 10.2733 12.258 9.98C12.8447 9.63333 13.4647 9.28 14.118 8.92C14.7714 8.54667 15.4047 8.22667 16.018 7.96C16.7247 7.61333 17.3847 7.38 17.998 7.26C18.4247 7.15333 18.8247 7.09333 19.198 7.08C19.5714 7.06667 19.9247 7.10667 20.258 7.2C20.9914 7.41333 21.4914 7.86667 21.758 8.56C21.958 9.05333 21.9847 9.54667 21.838 10.04C21.7047 10.52 21.5247 10.9733 21.298 11.4C21.338 11.3867 21.378 11.3733 21.418 11.36C21.4714 11.3467 21.518 11.3333 21.558 11.32C22.0647 11.1333 22.5647 11.16 23.058 11.4C23.5647 11.6267 23.9114 12 24.098 12.52C24.2847 13.04 24.2647 13.5533 24.038 14.06C23.8114 14.5533 23.4314 14.8933 22.898 15.08C22.2847 15.2933 21.7114 15.4933 21.178 15.68C20.658 15.8667 20.198 16.0267 19.798 16.16C19.2514 16.32 18.798 16.44 18.438 16.52C18.0914 16.5867 17.778 16.62 17.498 16.62Z" fill="white"/>
</svg>
