<svg width="119" height="26" viewBox="0 0 119 26" fill="none" xmlns="http://www.w3.org/2000/svg">
<path d="M44.719 7.185V19H42.781V10.908L39.177 19H37.834L34.213 10.908V19H32.275V7.185H34.366L38.514 16.45L42.645 7.185H44.719ZM55.6982 9.633L49.9522 23.403H47.9462L49.8502 18.847L46.1612 9.633H48.3202L50.9552 16.773L53.6922 9.633H55.6982ZM64.7937 7.185V8.766H61.6487V19H59.7107V8.766H56.5487V7.185H64.7937ZM75.3414 14.087C75.3414 14.4383 75.3188 14.7557 75.2734 15.039H68.1164C68.1731 15.787 68.4508 16.3877 68.9494 16.841C69.4481 17.2943 70.0601 17.521 70.7854 17.521C71.8281 17.521 72.5648 17.0847 72.9954 16.212H75.0864C74.8031 17.0733 74.2874 17.7817 73.5394 18.337C72.8028 18.881 71.8848 19.153 70.7854 19.153C69.8901 19.153 69.0854 18.9547 68.3714 18.558C67.6688 18.15 67.1134 17.5833 66.7054 16.858C66.3088 16.1213 66.1104 15.2713 66.1104 14.308C66.1104 13.3447 66.3031 12.5003 66.6884 11.775C67.0851 11.0383 67.6348 10.4717 68.3374 10.075C69.0514 9.67833 69.8674 9.48 70.7854 9.48C71.6694 9.48 72.4571 9.67267 73.1484 10.058C73.8398 10.4433 74.3781 10.9873 74.7634 11.69C75.1488 12.3813 75.3414 13.1803 75.3414 14.087ZM73.3184 13.475C73.3071 12.761 73.0521 12.1887 72.5534 11.758C72.0548 11.3273 71.4371 11.112 70.7004 11.112C70.0318 11.112 69.4594 11.3273 68.9834 11.758C68.5074 12.1773 68.2241 12.7497 68.1334 13.475H73.3184ZM76.6026 14.274C76.6026 13.3333 76.7953 12.5003 77.1806 11.775C77.5773 11.0497 78.11 10.4887 78.7786 10.092C79.4586 9.684 80.2066 9.48 81.0226 9.48C81.7593 9.48 82.3996 9.62733 82.9436 9.922C83.499 10.2053 83.941 10.5623 84.2696 10.993V9.633H86.2246V19H84.2696V17.606C83.941 18.048 83.4933 18.4163 82.9266 18.711C82.36 19.0057 81.714 19.153 80.9886 19.153C80.184 19.153 79.4473 18.949 78.7786 18.541C78.11 18.1217 77.5773 17.5437 77.1806 16.807C76.7953 16.059 76.6026 15.2147 76.6026 14.274ZM84.2696 14.308C84.2696 13.662 84.1336 13.101 83.8616 12.625C83.601 12.149 83.2553 11.7863 82.8246 11.537C82.394 11.2877 81.9293 11.163 81.4306 11.163C80.932 11.163 80.4673 11.2877 80.0366 11.537C79.606 11.775 79.2546 12.132 78.9826 12.608C78.722 13.0727 78.5916 13.628 78.5916 14.274C78.5916 14.92 78.722 15.4867 78.9826 15.974C79.2546 16.4613 79.606 16.8353 80.0366 17.096C80.4786 17.3453 80.9433 17.47 81.4306 17.47C81.9293 17.47 82.394 17.3453 82.8246 17.096C83.2553 16.8467 83.601 16.484 83.8616 16.008C84.1336 15.5207 84.2696 14.954 84.2696 14.308ZM100.109 9.48C100.846 9.48 101.503 9.633 102.081 9.939C102.67 10.245 103.129 10.6983 103.458 11.299C103.798 11.8997 103.968 12.625 103.968 13.475V19H102.047V13.764C102.047 12.9253 101.837 12.285 101.418 11.843C100.999 11.3897 100.426 11.163 99.7011 11.163C98.9758 11.163 98.3978 11.3897 97.9671 11.843C97.5478 12.285 97.3381 12.9253 97.3381 13.764V19H95.4171V13.764C95.4171 12.9253 95.2075 12.285 94.7881 11.843C94.3688 11.3897 93.7965 11.163 93.0711 11.163C92.3458 11.163 91.7678 11.3897 91.3371 11.843C90.9178 12.285 90.7081 12.9253 90.7081 13.764V19H88.7701V9.633H90.7081V10.704C91.0255 10.3187 91.4278 10.0183 91.9151 9.803C92.4025 9.58767 92.9238 9.48 93.4791 9.48C94.2271 9.48 94.8958 9.63867 95.4851 9.956C96.0745 10.2733 96.5278 10.7323 96.8451 11.333C97.1285 10.7663 97.5705 10.3187 98.1711 9.99C98.7718 9.65 99.4178 9.48 100.109 9.48ZM109.834 19.153C109.098 19.153 108.435 19.0227 107.845 18.762C107.267 18.49 106.808 18.1273 106.468 17.674C106.128 17.2093 105.947 16.6937 105.924 16.127H107.93C107.964 16.5237 108.151 16.858 108.491 17.13C108.843 17.3907 109.279 17.521 109.8 17.521C110.344 17.521 110.764 17.419 111.058 17.215C111.364 16.9997 111.517 16.7277 111.517 16.399C111.517 16.0477 111.347 15.787 111.007 15.617C110.679 15.447 110.152 15.26 109.426 15.056C108.724 14.8633 108.151 14.6763 107.709 14.495C107.267 14.3137 106.882 14.036 106.553 13.662C106.236 13.288 106.077 12.795 106.077 12.183C106.077 11.6843 106.225 11.231 106.519 10.823C106.814 10.4037 107.233 10.075 107.777 9.837C108.333 9.599 108.967 9.48 109.681 9.48C110.747 9.48 111.602 9.752 112.248 10.296C112.906 10.8287 113.257 11.5597 113.302 12.489H111.364C111.33 12.0697 111.16 11.7353 110.854 11.486C110.548 11.2367 110.135 11.112 109.613 11.112C109.103 11.112 108.712 11.2083 108.44 11.401C108.168 11.5937 108.032 11.8487 108.032 12.166C108.032 12.4153 108.123 12.625 108.304 12.795C108.486 12.965 108.707 13.101 108.967 13.203C109.228 13.2937 109.613 13.4127 110.123 13.56C110.803 13.7413 111.359 13.9283 111.789 14.121C112.231 14.3023 112.611 14.5743 112.928 14.937C113.246 15.2997 113.41 15.7813 113.421 16.382C113.421 16.9147 113.274 17.3907 112.979 17.81C112.685 18.2293 112.265 18.558 111.721 18.796C111.189 19.034 110.56 19.153 109.834 19.153Z" fill="white"/>
<path d="M7.30461 18.82C6.81128 18.82 6.39128 18.6733 6.04461 18.38C5.72461 18.1267 5.50461 17.8067 5.38461 17.42C5.26461 17.02 5.25794 16.6333 5.36461 16.26C5.36461 16.26 5.37128 16.2467 5.38461 16.22C5.39794 16.18 5.41128 16.1333 5.42461 16.08C4.69128 16.52 4.02461 16.8533 3.42461 17.08C2.91794 17.2667 2.41128 17.2467 1.90461 17.02C1.39794 16.78 1.05128 16.4067 0.864609 15.9C0.664609 15.38 0.684609 14.8667 0.924609 14.36C1.16461 13.8533 1.53794 13.5067 2.04461 13.32C2.27128 13.24 2.65128 13.0467 3.18461 12.74C3.73128 12.4333 4.47128 11.9067 5.40461 11.16C5.96461 10.7067 6.42461 10.3133 6.78461 9.98C7.15794 9.63333 7.34461 9.46 7.34461 9.46C7.89128 8.94 8.53128 8.77333 9.26461 8.96C9.81128 9.10667 10.2246 9.42667 10.5046 9.92C10.7179 10.2933 10.8113 10.6733 10.7846 11.06C10.7579 11.4467 10.6846 11.8933 10.5646 12.4C10.5513 12.5333 10.5246 12.6667 10.4846 12.8C10.4446 12.92 10.4046 13.0533 10.3646 13.2C10.7913 13.1733 11.1846 13.2667 11.5446 13.48C11.9179 13.6933 12.1913 14 12.3646 14.4C12.5913 14.8933 12.6046 15.4 12.4046 15.92C12.2046 16.4267 11.8513 16.7933 11.3446 17.02C10.7713 17.2733 10.2513 17.52 9.78461 17.76C9.33128 18 8.96461 18.1933 8.68461 18.34C8.41794 18.4867 8.27794 18.56 8.26461 18.56C7.94461 18.7333 7.62461 18.82 7.30461 18.82ZM17.498 18.62C17.3114 18.62 17.1047 18.5867 16.878 18.52C16.198 18.36 15.7314 17.9467 15.478 17.28C15.2647 16.7733 15.2714 16.2 15.498 15.56C15.578 15.3333 15.698 15.0667 15.858 14.76C15.8847 14.7067 15.9114 14.6467 15.938 14.58C15.978 14.5133 16.018 14.4533 16.058 14.4C15.7647 14.56 15.4647 14.7333 15.158 14.92C14.8647 15.0933 14.5647 15.26 14.258 15.42C13.7247 15.7533 13.2047 16.06 12.698 16.34C12.1914 16.6067 11.7247 16.8333 11.298 17.02C10.8047 17.2467 10.298 17.26 9.77805 17.06C9.25805 16.86 8.89138 16.5067 8.67805 16C8.45138 15.4933 8.43805 14.9867 8.63805 14.48C8.83805 13.96 9.19138 13.5933 9.69805 13.38C10.0047 13.2333 10.3847 13.04 10.838 12.8C11.2914 12.5467 11.7647 12.2733 12.258 11.98C12.8447 11.6333 13.4647 11.28 14.118 10.92C14.7714 10.5467 15.4047 10.2267 16.018 9.96C16.7247 9.61333 17.3847 9.38 17.998 9.26C18.4247 9.15333 18.8247 9.09333 19.198 9.08C19.5714 9.06667 19.9247 9.10667 20.258 9.2C20.9914 9.41333 21.4914 9.86667 21.758 10.56C21.958 11.0533 21.9847 11.5467 21.838 12.04C21.7047 12.52 21.5247 12.9733 21.298 13.4C21.338 13.3867 21.378 13.3733 21.418 13.36C21.4714 13.3467 21.518 13.3333 21.558 13.32C22.0647 13.1333 22.5647 13.16 23.058 13.4C23.5647 13.6267 23.9114 14 24.098 14.52C24.2847 15.04 24.2647 15.5533 24.038 16.06C23.8114 16.5533 23.4314 16.8933 22.898 17.08C22.2847 17.2933 21.7114 17.4933 21.178 17.68C20.658 17.8667 20.198 18.0267 19.798 18.16C19.2514 18.32 18.798 18.44 18.438 18.52C18.0914 18.5867 17.778 18.62 17.498 18.62Z" fill="white"/>
</svg>
